<?xml version="1.0" encoding="iso-8859-1"?>
<!-- Uploaded to: SVG Repo, www.svgrepo.com, Generator: SVG Repo Mixer Tools -->
<svg fill="#000000" height="800px" width="800px" version="1.1" id="Layer_1" xmlns="http://www.w3.org/2000/svg" xmlns:xlink="http://www.w3.org/1999/xlink" 
	 viewBox="0 0 512 512" xml:space="preserve">
<g>
	<g>
		<path d="M422.957,100.174H372.87V50.088c0-4.428-1.759-8.673-4.888-11.804L334.596,4.892C331.465,1.76,327.218,0,322.789,0
			H189.219c-4.428,0-8.674,1.76-11.805,4.891l-33.392,33.392c-3.131,3.131-4.891,7.377-4.891,11.805v50.086H89.044
			c-9.22,0-16.696,7.475-16.696,16.696v345.043c0,27.618,22.469,50.087,50.087,50.087h267.13c27.618,0,50.087-22.469,50.087-50.087
			V116.87C439.652,107.649,432.177,100.174,422.957,100.174z M172.522,57.005l23.613-23.613h119.738l23.605,23.611v43.172H172.522
			V57.005z M406.261,461.913c0,9.206-7.49,16.696-16.696,16.696h-267.13c-9.206,0-16.696-7.49-16.696-16.696v-16.696h300.522
			V461.913z M406.261,411.826H105.739V133.565h33.391v16.696c0,9.22,7.475,16.696,16.696,16.696s16.696-7.475,16.696-16.696v-16.696
			h166.957v16.696c0,9.22,7.475,16.696,16.696,16.696c9.22,0,16.696-7.475,16.696-16.696v-16.696h33.391V411.826z"/>
	</g>
</g>
</svg>